HIERARCHY
ROOT Hips
{
	OFFSET 0.000000 97.167313 0.000000
	CHANNELS 6 Xposition Yposition Zposition Xrotation Yrotation Zrotation
	JOINT Spine
	{
		OFFSET 0.000000 13.784798 0.064400
		CHANNELS 3 Xrotation Yrotation Zrotation
		JOINT Spine1
		{
			OFFSET 0.000000 12.037903 0.404700
			CHANNELS 3 Xrotation Yrotation Zrotation
			JOINT Spine2
			{
				OFFSET 0.000000 17.795601 0.420200
				CHANNELS 3 Xrotation Yrotation Zrotation
				JOINT Neck
				{
					OFFSET 0.000000 39.131302 11.954600
					CHANNELS 3 Xrotation Yrotation Zrotation
					JOINT Head
					{
						OFFSET 0.000000 14.456192 15.627699
						CHANNELS 3 Xrotation Yrotation Zrotation
						JOINT HeadTop_End
						{
							OFFSET 0.000000 15.703506 7.603401
							CHANNELS 3 Xrotation Yrotation Zrotation
							End Site
							{
								OFFSET 0.000000 17.447403 0.000000
							}
						}
					}
				}
				JOINT LeftShoulder
				{
					OFFSET 17.399500 24.608795 1.168800
					CHANNELS 3 Xrotation Yrotation Zrotation
					JOINT LeftArm
					{
						OFFSET 18.980635 5.765305 1.818600
						CHANNELS 3 Xrotation Yrotation Zrotation
						JOINT LeftForeArm
						{
							OFFSET 49.290169 0.000000 0.000000
							CHANNELS 3 Xrotation Yrotation Zrotation
							JOINT LeftHand
							{
								OFFSET 31.562012 0.000000 0.000000
								CHANNELS 3 Xrotation Yrotation Zrotation
								JOINT LeftHandThumb1
								{
									OFFSET 6.133995 -4.388519 7.076070
									CHANNELS 3 Xrotation Yrotation Zrotation
									JOINT LeftHandThumb2
									{
										OFFSET 6.037666 -3.485840 3.485847
										CHANNELS 3 Xrotation Yrotation Zrotation
										JOINT LeftHandThumb3
										{
											OFFSET 6.496506 -3.750763 3.750761
											CHANNELS 3 Xrotation Yrotation Zrotation
											JOINT LeftHandThumb4
											{
												OFFSET 5.616882 -3.242905 3.242910
												CHANNELS 3 Xrotation Yrotation Zrotation
												End Site
												{
													OFFSET -1.254608 7.132141 0.375429
												}
											}
										}
									}
								}
								JOINT LeftHandPinky1
								{
									OFFSET 18.920792 -0.453171 -11.426712
									CHANNELS 3 Xrotation Yrotation Zrotation
									JOINT LeftHandPinky2
									{
										OFFSET 4.919586 0.000000 0.000000
										CHANNELS 3 Xrotation Yrotation Zrotation
										JOINT LeftHandPinky3
										{
											OFFSET 5.233047 0.000000 0.000000
											CHANNELS 3 Xrotation Yrotation Zrotation
											JOINT LeftHandPinky4
											{
												OFFSET 5.571716 0.000000 0.000000
												CHANNELS 3 Xrotation Yrotation Zrotation
												End Site
												{
													OFFSET -3.459808 4.342407 -0.466164
												}
											}
										}
									}
								}
								JOINT LeftHandRing1
								{
									OFFSET 22.726120 -0.094986 -6.500475
									CHANNELS 3 Xrotation Yrotation Zrotation
									JOINT LeftHandRing2
									{
										OFFSET 6.408615 0.000000 0.000000
										CHANNELS 3 Xrotation Yrotation Zrotation
										JOINT LeftHandRing3
										{
											OFFSET 6.150223 0.000000 0.000000
											CHANNELS 3 Xrotation Yrotation Zrotation
											JOINT LeftHandRing4
											{
												OFFSET 6.145386 0.000000 0.000000
												CHANNELS 3 Xrotation Yrotation Zrotation
												End Site
												{
													OFFSET -3.671402 4.923981 -0.202372
												}
											}
										}
									}
								}
								JOINT LeftHandMiddle1
								{
									OFFSET 23.373947 0.000000 0.000001
									CHANNELS 3 Xrotation Yrotation Zrotation
									JOINT LeftHandMiddle2
									{
										OFFSET 6.996567 0.000000 0.000000
										CHANNELS 3 Xrotation Yrotation Zrotation
										JOINT LeftHandMiddle3
										{
											OFFSET 7.015945 0.000000 0.000000
											CHANNELS 3 Xrotation Yrotation Zrotation
											JOINT LeftHandMiddle4
											{
												OFFSET 7.721573 0.000000 0.000000
												CHANNELS 3 Xrotation Yrotation Zrotation
												End Site
												{
													OFFSET -4.651108 6.158463 0.251582
												}
											}
										}
									}
								}
								JOINT LeftHandIndex1
								{
									OFFSET 21.310577 -0.490082 6.209344
									CHANNELS 3 Xrotation Yrotation Zrotation
									JOINT LeftHandIndex2
									{
										OFFSET 7.536453 0.000000 0.000000
										CHANNELS 3 Xrotation Yrotation Zrotation
										JOINT LeftHandIndex3
										{
											OFFSET 7.512344 0.000000 0.000000
											CHANNELS 3 Xrotation Yrotation Zrotation
											JOINT LeftHandIndex4
											{
												OFFSET 10.212402 0.000000 0.000001
												CHANNELS 3 Xrotation Yrotation Zrotation
												End Site
												{
													OFFSET -5.180801 8.690506 1.388433
												}
											}
										}
									}
								}
							}
						}
					}
				}
				JOINT RightShoulder
				{
					OFFSET -17.399500 24.608795 1.168800
					CHANNELS 3 Xrotation Yrotation Zrotation
					JOINT RightArm
					{
						OFFSET -18.980635 5.765305 1.818600
						CHANNELS 3 Xrotation Yrotation Zrotation
						JOINT RightForeArm
						{
							OFFSET -49.290169 0.000000 0.000000
							CHANNELS 3 Xrotation Yrotation Zrotation
							JOINT RightHand
							{
								OFFSET -31.562012 0.000000 0.000000
								CHANNELS 3 Xrotation Yrotation Zrotation
								JOINT RightHandThumb1
								{
									OFFSET -6.133995 -4.388519 7.076070
									CHANNELS 3 Xrotation Yrotation Zrotation
									JOINT RightHandThumb2
									{
										OFFSET -6.037666 -3.485840 3.485847
										CHANNELS 3 Xrotation Yrotation Zrotation
										JOINT RightHandThumb3
										{
											OFFSET -6.496506 -3.750763 3.750761
											CHANNELS 3 Xrotation Yrotation Zrotation
											JOINT RightHandThumb4
											{
												OFFSET -5.616882 -3.242905 3.242910
												CHANNELS 3 Xrotation Yrotation Zrotation
												End Site
												{
													OFFSET 1.254608 7.132141 0.375429
												}
											}
										}
									}
								}
								JOINT RightHandIndex1
								{
									OFFSET -21.310577 -0.490082 6.209344
									CHANNELS 3 Xrotation Yrotation Zrotation
									JOINT RightHandIndex2
									{
										OFFSET -7.536453 0.000000 0.000000
										CHANNELS 3 Xrotation Yrotation Zrotation
										JOINT RightHandIndex3
										{
											OFFSET -7.512344 0.000000 0.000000
											CHANNELS 3 Xrotation Yrotation Zrotation
											JOINT RightHandIndex4
											{
												OFFSET -10.212402 0.000000 0.000001
												CHANNELS 3 Xrotation Yrotation Zrotation
												End Site
												{
													OFFSET 5.180801 8.690506 1.388433
												}
											}
										}
									}
								}
								JOINT RightHandMiddle1
								{
									OFFSET -23.373947 0.000000 0.000001
									CHANNELS 3 Xrotation Yrotation Zrotation
									JOINT RightHandMiddle2
									{
										OFFSET -6.996567 0.000000 0.000000
										CHANNELS 3 Xrotation Yrotation Zrotation
										JOINT RightHandMiddle3
										{
											OFFSET -7.015945 0.000000 0.000000
											CHANNELS 3 Xrotation Yrotation Zrotation
											JOINT RightHandMiddle4
											{
												OFFSET -7.721573 0.000000 0.000000
												CHANNELS 3 Xrotation Yrotation Zrotation
												End Site
												{
													OFFSET 4.651108 6.158463 0.251582
												}
											}
										}
									}
								}
								JOINT RightHandRing1
								{
									OFFSET -22.726120 -0.094986 -6.500475
									CHANNELS 3 Xrotation Yrotation Zrotation
									JOINT RightHandRing2
									{
										OFFSET -6.408615 0.000000 0.000000
										CHANNELS 3 Xrotation Yrotation Zrotation
										JOINT RightHandRing3
										{
											OFFSET -6.150223 0.000000 0.000000
											CHANNELS 3 Xrotation Yrotation Zrotation
											JOINT RightHandRing4
											{
												OFFSET -6.145386 0.000000 0.000000
												CHANNELS 3 Xrotation Yrotation Zrotation
												End Site
												{
													OFFSET 3.671402 4.923981 -0.202372
												}
											}
										}
									}
								}
								JOINT RightHandPinky1
								{
									OFFSET -18.920792 -0.453171 -11.426712
									CHANNELS 3 Xrotation Yrotation Zrotation
									JOINT RightHandPinky2
									{
										OFFSET -4.919586 0.000000 0.000000
										CHANNELS 3 Xrotation Yrotation Zrotation
										JOINT RightHandPinky3
										{
											OFFSET -5.233047 0.000000 0.000000
											CHANNELS 3 Xrotation Yrotation Zrotation
											JOINT RightHandPinky4
											{
												OFFSET -5.571716 0.000000 0.000000
												CHANNELS 3 Xrotation Yrotation Zrotation
												End Site
												{
													OFFSET 3.459808 4.342407 -0.466164
												}
											}
										}
									}
								}
							}
						}
					}
				}
			}
		}
	}
	JOINT LeftUpLeg
	{
		OFFSET 19.899099 -7.885101 -3.429500
		CHANNELS 3 Xrotation Yrotation Zrotation
		JOINT LeftLeg
		{
			OFFSET 1.745560 -36.997807 10.304700
			CHANNELS 3 Xrotation Yrotation Zrotation
			JOINT LeftFoot
			{
				OFFSET -1.745558 -29.803308 -13.615400
				CHANNELS 3 Xrotation Yrotation Zrotation
				JOINT LeftToeBase
				{
					OFFSET 1.181900 -18.539904 15.226099
					CHANNELS 3 Xrotation Yrotation Zrotation
					JOINT LeftToe_End
					{
						OFFSET -0.863701 1.402801 16.534700
						CHANNELS 3 Xrotation Yrotation Zrotation
						End Site
						{
							OFFSET 0.000000 16.616566 0.000000
						}
					}
				}
			}
		}
	}
	JOINT RightUpLeg
	{
		OFFSET -19.899099 -7.885101 -3.429500
		CHANNELS 3 Xrotation Yrotation Zrotation
		JOINT RightLeg
		{
			OFFSET -1.745560 -36.997807 10.304700
			CHANNELS 3 Xrotation Yrotation Zrotation
			JOINT RightFoot
			{
				OFFSET 1.745558 -29.803308 -13.615400
				CHANNELS 3 Xrotation Yrotation Zrotation
				JOINT RightToeBase
				{
					OFFSET -1.181900 -18.539904 15.226099
					CHANNELS 3 Xrotation Yrotation Zrotation
					JOINT RightToe_End
					{
						OFFSET 0.863701 1.402801 16.534700
						CHANNELS 3 Xrotation Yrotation Zrotation
						End Site
						{
							OFFSET 0.000000 16.616566 0.000000
						}
					}
				}
			}
		}
	}
}
MOTION
Frames: 4
Frame Time: 0.033333
-0.894576 92.595467 0.625226 2.004794 -29.040260 0.671606 6.864773 -0.241834 -2.721230 1.825703 -0.896828 2.846220 1.898766 -0.548757 2.895055 -3.608740 17.469129 -5.914452 -5.822745 13.069360 -1.737348 0.000000 -0.000000 0.000000 -0.019092 -7.889681 0.345961 -53.349324 -0.153615 -43.355995 12.504304 -64.845563 14.371906 -50.051923 10.247514 4.591029 17.589885 -5.614109 -12.935915 10.897048 26.231581 8.652541 20.924635 51.117723 0.214382 -0.000000 -0.000000 -0.000003 10.030127 13.648615 -84.751986 0.876917 0.062092 -64.595483 1.141260 1.253181 -55.016310 0.000001 0.000002 -0.000002 8.573008 2.179147 -75.148958 -0.207670 1.009150 -57.855070 0.443081 1.742140 -53.581260 -0.000001 0.000001 0.000003 7.548223 1.149492 -63.780443 1.807873 1.475540 -64.568019 0.131633 -0.912250 -43.272438 -0.000000 -0.000001 0.000006 13.980856 1.201537 -55.004391 0.370889 1.162840 -65.441934 1.983815 2.149093 -57.665149 -0.000002 0.000005 0.000002 4.923569 7.589565 6.449659 0.330764 -0.211071 62.819955 11.584572 18.738626 -4.018044 -1.078581 7.678333 6.655837 16.123406 -6.190709 -17.989564 -0.160471 -33.704183 7.843611 -4.772353 -7.797908 1.540443 -0.000003 0.000000 0.000002 3.155155 -5.881386 12.939008 -2.122822 -2.489837 22.725078 -1.868576 -4.840136 18.221268 -0.000001 -0.000001 0.000001 -1.453377 -7.016608 17.298643 0.285927 -5.108155 30.628788 -0.621186 -1.232592 19.768366 -0.000000 0.000001 -0.000004 -2.630394 -9.705286 14.058526 3.944888 -4.063545 36.113970 2.077047 -3.235750 18.438415 -0.000001 0.000000 -0.000005 -5.084881 -11.745630 26.272931 10.808703 -2.335246 39.846139 6.425410 -3.059522 19.130713 -0.000000 0.000003 -0.000001 -13.402164 18.014913 14.224707 17.147933 10.561244 -2.481615 -4.262698 -1.741587 -8.222638 -0.145165 0.007831 -0.311784 0.000000 0.000000 0.000000 -9.452245 -1.092021 -9.795193 13.361124 10.069351 1.014898 -6.378148 -1.362987 7.752403 -1.288147 -0.016741 0.149983 -0.000000 -0.000000 0.000000 
-0.898515 92.594345 0.615462 2.033733 -29.052326 0.687019 6.910522 -0.228256 -2.764534 1.834677 -0.894605 2.859285 1.907143 -0.545310 2.907092 -3.739023 17.477981 -5.910030 -5.837527 13.057282 -1.732070 0.000000 0.000000 0.000000 -0.015492 -7.931907 0.375954 -53.376385 -0.155168 -43.349875 12.617393 -64.827661 14.494611 -50.064928 10.392013 4.625308 17.589885 -5.614110 -12.935916 10.897047 26.231581 8.652536 20.924631 51.117720 0.214379 0.000001 -0.000001 0.000002 10.030128 13.648623 -84.751986 0.876917 0.062091 -64.595483 1.141257 1.253185 -55.016317 0.000000 0.000002 -0.000005 8.573007 2.179148 -75.148958 -0.207667 1.009147 -57.855076 0.443081 1.742141 -53.581263 -0.000001 0.000001 -0.000002 7.548222 1.149492 -63.780443 1.807871 1.475541 -64.568019 0.131630 -0.912253 -43.272445 0.000000 -0.000000 0.000004 13.980855 1.201536 -55.004388 0.370888 1.162835 -65.441928 1.983811 2.149088 -57.665156 -0.000000 0.000001 -0.000001 4.924483 7.632453 6.426536 0.364480 -0.127390 62.906903 11.385746 18.740084 -3.939005 -1.104323 8.055870 6.941382 16.142080 -6.387276 -18.032946 -0.035908 -33.877800 7.865362 -4.692893 -7.961101 1.511473 0.000001 0.000001 0.000001 3.159047 -5.884627 13.156696 -2.120650 -2.489005 22.936813 -1.867762 -4.840526 18.433016 0.000001 -0.000001 -0.000001 -1.450651 -7.027297 17.500876 0.285992 -5.108530 30.831307 -0.616778 -1.234677 19.971004 -0.000000 0.000000 -0.000004 -2.611938 -9.741187 14.240524 3.942165 -4.062201 36.305013 2.076189 -3.234312 18.629182 -0.000001 -0.000000 -0.000005 -5.008410 -11.769345 26.446907 10.809200 -2.332980 40.060986 6.424236 -3.061965 19.310311 -0.000001 -0.000002 -0.000001 -13.427546 18.008154 14.230003 17.146065 10.579847 -2.483481 -4.254739 -1.741402 -8.226796 -0.145165 0.007831 -0.311784 -0.000000 0.000000 0.000000 -9.497375 -1.090788 -9.789841 13.369762 10.077187 1.011541 -6.363713 -1.357638 7.749909 -1.288147 -0.016741 0.149983 -0.000000 -0.000002 -0.000000 
-0.905129 92.595184 0.609044 2.059724 -29.072881 0.701039 6.947522 -0.209455 -2.818245 1.842633 -0.891007 2.879052 1.914492 -0.541221 2.925934 -3.857348 17.487427 -5.904818 -5.841358 13.048028 -1.725209 -0.000000 -0.000000 0.000000 -0.011928 -7.967342 0.403988 -53.390626 -0.152218 -43.347799 12.703880 -64.820469 14.590720 -50.079517 10.533432 4.662239 17.589883 -5.614108 -12.935910 10.897039 26.231575 8.652544 20.924631 51.117723 0.214380 -0.000001 0.000003 -0.000003 10.030127 13.648618 -84.751986 0.876918 0.062087 -64.595483 1.141259 1.253183 -55.016313 0.000002 -0.000001 -0.000002 8.573007 2.179149 -75.148958 -0.207667 1.009147 -57.855076 0.443083 1.742141 -53.581260 0.000000 0.000000 0.000005 7.548222 1.149492 -63.780443 1.807873 1.475542 -64.568019 0.131632 -0.912251 -43.272442 0.000000 0.000000 0.000004 13.980853 1.201537 -55.004391 0.370889 1.162840 -65.441934 1.983812 2.149092 -57.665149 -0.000001 0.000003 0.000001 4.925667 7.680830 6.402358 0.416641 -0.032769 62.985409 11.362044 18.714990 -3.909365 -1.115719 8.209368 7.159357 16.159299 -6.569976 -18.073118 0.080289 -34.039552 7.885990 -4.619592 -8.111697 1.485151 -0.000001 0.000002 0.000004 3.162220 -5.885869 13.359781 -2.118210 -2.488119 23.134119 -1.867172 -4.840801 18.630432 0.000002 -0.000001 0.000001 -1.448067 -7.037263 17.689001 0.285838 -5.108863 31.019611 -0.612556 -1.236856 20.159334 0.000001 0.000001 -0.000006 -2.593652 -9.776810 14.408760 3.939732 -4.061108 36.482072 2.075726 -3.232853 18.805884 -0.000000 -0.000000 -0.000002 -4.932286 -11.793014 26.606930 10.809562 -2.330729 40.261400 6.423033 -3.064380 19.475615 -0.000000 -0.000002 0.000002 -13.440830 18.005203 14.236453 17.136297 10.599219 -2.484525 -4.246954 -1.738105 -8.236896 -0.145165 0.007831 -0.311784 0.000000 0.000000 0.000000 -9.534174 -1.088261 -9.784957 13.368541 10.091213 1.008710 -6.349094 -1.350639 7.744668 -1.288147 -0.016741 0.149983 0.000000 -0.000001 0.000000 
-0.912600 92.596611 0.606643 2.083524 -29.098833 0.714229 6.975227 -0.191090 -2.875601 1.850892 -0.886920 2.902543 1.922115 -0.536759 2.948550 -3.963297 17.497413 -5.899211 -5.841620 13.044354 -1.721782 -0.000000 0.000000 0.000000 -0.007728 -7.990080 0.432260 -53.400010 -0.137110 -43.361340 12.754968 -64.829212 14.644405 -50.091217 10.671651 4.700403 17.589887 -5.614109 -12.935913 10.897044 26.231577 8.652542 20.924621 51.117713 0.214383 -0.000004 0.000001 0.000001 10.030129 13.648617 -84.751986 0.876916 0.062090 -64.595483 1.141258 1.253184 -55.016317 0.000001 0.000000 -0.000002 8.573006 2.179148 -75.148958 -0.207667 1.009148 -57.855076 0.443082 1.742139 -53.581260 0.000001 0.000000 -0.000000 7.548221 1.149493 -63.780450 1.807871 1.475542 -64.568019 0.131631 -0.912254 -43.272445 -0.000001 -0.000000 0.000004 13.980855 1.201536 -55.004391 0.370889 1.162841 -65.441934 1.983815 2.149093 -57.665156 -0.000001 0.000001 0.000001 4.925943 7.734020 6.385626 0.504255 0.057684 63.046396 11.500284 18.688321 -3.924115 -1.121452 8.186055 7.308619 16.174894 -6.736657 -18.109777 0.186668 -34.187607 7.904902 -4.553359 -8.247765 1.461772 -0.000001 -0.000004 0.000002 3.164865 -5.886304 13.545997 -2.114913 -2.486918 23.314893 -1.866158 -4.841040 18.811079 0.000000 0.000000 -0.000001 -1.445651 -7.046474 17.860528 0.286107 -5.109125 31.191462 -0.609878 -1.238898 20.331064 0.000000 -0.000001 -0.000001 -2.575529 -9.812159 14.560722 3.937817 -4.060124 36.642896 2.075292 -3.231204 18.966254 -0.000000 0.000000 -0.000005 -4.856594 -11.816658 26.750576 10.810350 -2.328556 40.444982 6.421784 -3.066755 19.624313 -0.000003 -0.000004 0.000002 -13.445298 18.005173 14.241855 17.125050 10.620102 -2.484886 -4.243746 -1.733614 -8.249759 -0.145165 0.007831 -0.311784 0.000000 -0.000000 0.000000 -9.567852 -1.085235 -9.778944 13.366811 10.108449 1.005477 -6.335660 -1.342259 7.737056 -1.288147 -0.016744 0.149983 0.000000 0.000001 0.000000 
